#!OML:ASF I:\Actors\actors\Patient Classification 2\Patient 1\Session 1\actor1.ASF
:FULLY-SPECIFIED
:DEGREES
107
root -0.581962 18.7285 4.63626 2.2929 -3.53711 -0.654564
lowerback -0.155662 0.962577 -1.30369
upperback -3.66794 1.25663 -0.0879576
thorax -3.70975 0.666101 0.600459
lowerneck -9.89471 -2.96637 -3.3433
upperneck 27.3656 -4.76742 4.35013
head 10.5709 -2.04656 1.55596
rclavicle -1.51573e-015 4.96962e-015
rhumerus -57.0605 -13.8695 -78.1782
rradius 46.8364
rwrist 15.3242
rhand -1.62424 -41.5299
rfingers 7.12502
rthumb 24.0338 -70.0451
lclavicle -1.51573e-015 4.96962e-015
lhumerus -47.0741 6.54026 84.7617
lradius 39.0227
lwrist -7.22535
lhand -2.54944 -26.681
lfingers 7.12502
lthumb 23.1463 1.94848
rfemur 0 0 0
rtibia 0
rfoot 0 0
rtoes 0
lfemur -4.40189 -8.05238 -14.9103
ltibia 20.4572
lfoot -23.3335 13.5134
ltoes -54.0718
108
root -0.583322 18.7288 4.6346 2.285 -3.57233 -0.647424
lowerback -0.148882 0.969841 -1.32268
upperback -3.66984 1.26624 -0.0750174
thorax -3.71652 0.671766 0.623933
lowerneck -9.87245 -2.94967 -3.41226
upperneck 27.3374 -4.74402 4.40791
head 10.5582 -2.03681 1.59152
rclavicle -1.51573e-015 -2.98177e-015
rhumerus -57.0904 -13.8378 -78.1728
rradius 46.8735
rwrist 15.286
rhand -1.69483 -41.6485
rfingers 7.12502
rthumb 23.9661 -70.1726
lclavicle -1.51573e-015 -2.98177e-015
lhumerus -47.0789 6.4111 84.8995
lradius 39.2694
lwrist -7.27369
lhand -2.44881 -25.7382
lfingers 7.12502
lthumb 23.2429 2.87913
rfemur 0 0 0
rtibia 0
rfoot 0 0
rtoes 0
lfemur -4.39435 -7.98132 -14.9126
ltibia 20.4576
lfoot -23.3414 13.4667
ltoes -54.0057
109
root -0.584425 18.7285 4.63249 2.27078 -3.55303 -0.635002
lowerback -0.148264 0.964863 -1.33186
upperback -3.65633 1.25937 -0.0795817
thorax -3.7028 0.668416 0.624742
lowerneck -9.89249 -2.94129 -3.43283
upperneck 27.3195 -4.7364 4.44474
head 10.5567 -2.03099 1.60881
rclavicle 8.10048e-015 1.98785e-016
rhumerus -57.1037 -13.8837 -78.1592
rradius 46.9008
rwrist 15.2995
rhand -1.7215 -41.7001
rfingers 7.12502
rthumb 23.9405 -70.2276
lclavicle 8.10048e-015 1.98785e-016
lhumerus -47.0448 6.49175 84.7895
lradius 39.0365
lwrist -7.20802
lhand -2.52402 -26.6583
lfingers 7.12502
lthumb 23.1707 1.96808
rfemur 0 0 0
rtibia 0
rfoot 0 0
rtoes 0
lfemur -4.39661 -7.95417 -14.9156
ltibia 20.4651
lfoot -23.3484 13.3941
ltoes -53.949
110
root -0.585464 18.7277 4.62974 2.24634 -3.53138 -0.642936
lowerback -0.120013 0.962316 -1.32355
upperback -3.64395 1.25575 -0.0814232
thorax -3.70562 0.666267 0.617936
lowerneck -9.93206 -2.93397 -3.42538
upperneck 27.3265 -4.73375 4.46982
head 10.5674 -2.02538 1.6164
rclavicle 6.21202e-015 -2.38542e-015
rhumerus -57.0851 -13.9398 -78.1377
rradius 46.8743
rwrist 15.3352
rhand -1.67511 -41.6927
rfingers 7.12502
rthumb 23.985 -70.2144
lclavicle 6.21202e-015 -2.38542e-015
lhumerus -47.0163 6.47631 84.7737
lradius 39.0029
lwrist -7.25138
lhand -2.48911 -26.7609
lfingers 7.12502
lthumb 23.2042 1.86129
rfemur 0 0 0
rtibia 0
rfoot 0 0
rtoes 0
lfemur -4.39073 -7.99595 -14.9058
ltibia 20.4788
lfoot -23.3258 13.4268
ltoes -54.0373
111
root -0.586754 18.7276 4.62767 2.22296 -3.53155 -0.67925
lowerback -0.0796305 0.965433 -1.30343
upperback -3.6383 1.26031 -0.0640521
thorax -3.72262 0.668262 0.623715
lowerneck -9.96842 -2.92232 -3.39207
upperneck 27.3233 -4.71334 4.4355
head 10.5706 -2.01592 1.60038
rclavicle -1.34925e-014 -4.96962e-015
rhumerus -57.0568 -13.9208 -78.1355
rradius 46.8339
rwrist 15.2889
rhand -1.70252 -41.7177
rfingers 7.12502
rthumb 23.9587 -70.2428
lclavicle -1.34925e-014 -4.96962e-015
lhumerus -47.0122 6.45358 84.7856
lradius 39.0131
lwrist -7.27569
lhand -2.48039 -26.8008
lfingers 7.12502
lthumb 23.2126 1.82032
rfemur 0 0 0
rtibia 0
rfoot 0 0
rtoes 0
lfemur -4.37347 -8.01366 -14.8662
ltibia 20.4912
lfoot -23.3069 13.4431
ltoes -54.0755
112
root -0.58803 18.7278 4.62649 2.20402 -3.54702 -0.716281
lowerback -0.0607704 0.969881 -1.2806
upperback -3.6257 1.26715 -0.0440717
thorax -3.72029 0.671231 0.631069
lowerneck -9.98288 -2.91462 -3.33773
upperneck 27.281 -4.69192 4.36585
head 10.5535 -2.00862 1.5682
rclavicle -1.14798e-014 -5.96354e-015
rhumerus -57.0444 -13.9021 -78.1289
rradius 46.8359
rwrist 15.2706
rhand -1.73772 -41.7878
rfingers 7.12502
rthumb 23.9249 -70.3173
lclavicle -1.14798e-014 -5.96354e-015
lhumerus -47.0238 6.43844 84.797
lradius 39.0553
lwrist -7.27502
lhand -2.47173 -26.8062
lfingers 7.12502
lthumb 23.2209 1.81385
rfemur 0 0 0
rtibia 0
rfoot 0 0
rtoes 0
lfemur -4.35253 -8.0003 -14.8238
ltibia 20.4988
lfoot -23.3125 13.4255
ltoes -53.9918
113
root -0.589362 18.7274 4.62535 2.18029 -3.57465 -0.725808
lowerback -0.0551227 0.97811 -1.27291
upperback -3.60008 1.27845 -0.0421418
thorax -3.69699 0.676416 0.628582
lowerneck -10.0312 -2.89669 -3.29838
upperneck 27.2812 -4.67162 4.35959
head 10.561 -1.99518 1.56107
rclavicle -9.93923e-016 -4.37326e-015
rhumerus -57.0293 -13.9143 -78.1309
rradius 46.8535
rwrist 15.3029
rhand -1.736 -41.8709
rfingers 7.12502
rthumb 23.9266 -70.4002
lclavicle -9.93923e-016 -4.37326e-015
lhumerus -47.0111 6.38228 84.8124
lradius 39.0851
lwrist -7.23628
lhand -2.50128 -26.8103
lfingers 7.12502
lthumb 23.1925 1.81334
rfemur 0 0 0
rtibia 0
rfoot 0 0
rtoes 0
lfemur -4.32736 -8.0008 -14.8165
ltibia 20.5044
lfoot -23.3315 13.474
ltoes -53.9559
114
root -0.590122 18.727 4.62389 2.16215 -3.58568 -0.715823
lowerback -0.0415299 0.980398 -1.28426
upperback -3.58217 1.28111 -0.0451871
thorax -3.68636 0.677903 0.631664
lowerneck -10.0917 -2.86795 -3.24632
upperneck 27.3015 -4.63597 4.34163
head 10.577 -1.97434 1.54947
rclavicle 3.27995e-015 5.1684e-015
rhumerus -57.0214 -13.8935 -78.15
rradius 46.8612
rwrist 15.2745
rhand -1.75838 -41.8771
rfingers 7.12502
rthumb 23.9051 -70.4092
lclavicle 3.27995e-015 5.1684e-015
lhumerus -46.9744 6.3348 84.8272
lradius 39.0723
lwrist -7.21129
lhand -2.56441 -26.8269
lfingers 7.12502
lthumb 23.132 1.80432
rfemur 0 0 0
rtibia 0
rfoot 0 0
rtoes 0
lfemur -4.31172 -8.02956 -14.833
ltibia 20.5047
lfoot -23.3482 13.5263
ltoes -54.0078
115
root -0.589972 18.7267 4.62238 2.15633 -3.57949 -0.71933
lowerback -0.0322049 0.977582 -1.277
upperback -3.57291 1.27748 -0.0436735
thorax -3.68181 0.675824 0.629215
lowerneck -10.0881 -2.85855 -3.19044
upperneck 27.2442 -4.61753 4.29093
head 10.5514 -1.96654 1.52361
rclavicle -1.4238e-014 1.98785e-016
rhumerus -57.0287 -13.8733 -78.1522
rradius 46.8674
rwrist 15.2555
rhand -1.77942 -41.7635
rfingers 7.12502
rthumb 23.8849 -70.2982
lclavicle -1.4238e-014 1.98785e-016
lhumerus -46.9361 6.32254 84.8238
lradius 39.032
lwrist -7.23059
lhand -2.61923 -26.8201
lfingers 7.12502
lthumb 23.0794 1.8177
rfemur 0 0 0
rtibia 0
rfoot 0 0
rtoes 0
lfemur -4.30316 -8.09646 -14.8354
ltibia 20.492
lfoot -23.3839 13.5519
ltoes -54.0286
116
root -0.590213 18.7267 4.62099 2.15582 -3.56681 -0.719095
lowerback -0.0227272 0.966442 -1.28149
upperback -3.57263 1.26254 -0.0383228
thorax -3.68679 0.668631 0.63755
lowerneck -10.055 -2.85157 -3.17459
upperneck 27.1823 -4.60593 4.28077
head 10.5207 -1.96187 1.51867
rclavicle -2.38542e-015 2.5842e-015
rhumerus -57.05 -13.8689 -78.1366
rradius 46.8719
rwrist 15.3281
rhand -1.79186 -41.6056
rfingers 7.12502
rthumb 23.873 -70.1419
lclavicle -2.38542e-015 2.5842e-015
lhumerus -46.9155 6.337 84.8028
lradius 38.9831
lwrist -7.24001
lhand -2.62989 -26.8354
lfingers 7.12502
lthumb 23.0691 1.80373
rfemur 0 0 0
rtibia 0
rfoot 0 0
rtoes 0
lfemur -4.29687 -8.10182 -14.8303
ltibia 20.4667
lfoot -23.3924 13.5302
ltoes -53.9695
117
root -0.590907 18.7272 4.61886 2.15175 -3.55965 -0.670627
lowerback 0.0144322 0.957273 -1.3455
upperback -3.58591 1.24821 -0.0422174
thorax -3.72271 0.663667 0.668992
lowerneck -10.0442 -2.84567 -3.19827
upperneck 27.1934 -4.59853 4.29961
head 10.5234 -1.95882 1.5306
rclavicle 1.73937e-014 7.95139e-015
rhumerus -57.0818 -13.8846 -78.0976
rradius 46.8572
rwrist 15.433
rhand -1.75512 -41.4609
rfingers 7.12502
rthumb 23.9082 -69.9926
lclavicle 1.73937e-014 7.95139e-015
lhumerus -46.925 6.3025 84.8617
lradius 39.1964
lwrist -7.45859
lhand -2.41832 -25.9119
lfingers 7.12502
lthumb 23.2721 2.70171
rfemur 0 0 0
rtibia 0
rfoot 0 0
rtoes 0
lfemur -4.29173 -8.09157 -14.8779
ltibia 20.4403
lfoot -23.3652 13.5258
ltoes -53.9446
118
root -0.590963 18.7275 4.61676 2.14032 -3.56934 -0.600313
lowerback 0.0555062 0.96656 -1.41974
upperback -3.59395 1.25765 -0.0639754
thorax -3.75579 0.670547 0.686968
lowerneck -10.0606 -2.86022 -3.20653
upperneck 27.2335 -4.61899 4.2989
head 10.5427 -1.96852 1.52932
rclavicle 8.15017e-015 -1.78906e-015
rhumerus -57.1087 -13.9246 -78.0514
rradius 46.8512
rwrist 15.5065
rhand -1.62695 -41.4111
rfingers 7.12502
rthumb 24.0312 -69.9267
lclavicle 8.15017e-015 -1.78906e-015
lhumerus -46.9151 6.36286 84.7993
lradius 39.0664
lwrist -7.40402
lhand -2.45297 -26.3568
lfingers 7.12502
lthumb 23.2389 2.26102
rfemur 0 0 0
rtibia 0
rfoot 0 0
rtoes 0
lfemur -4.27349 -8.15581 -14.9659
ltibia 20.4161
lfoot -23.3738 13.5816
ltoes -53.9775
